HIERARCHY
ROOT Hips
{
	OFFSET 0.000000 0.000000 0.000000
	CHANNELS 6 Xposition Yposition Zposition Zrotation Yrotation Xrotation 
	JOINT LHipJoint
	{
		OFFSET 0.000000 0.000000 0.000000
		CHANNELS 3 Zrotation Yrotation Xrotation
		JOINT LeftUpLeg
		{
			OFFSET 1.363060 -1.794630 0.839290
			CHANNELS 3 Zrotation Yrotation Xrotation
			JOINT LeftLeg
			{
				OFFSET 2.448110 -6.726130 0.000000
				CHANNELS 3 Zrotation Yrotation Xrotation
				JOINT LeftFoot
				{
					OFFSET 2.562200 -7.039590 0.000000
					CHANNELS 3 Zrotation Yrotation Xrotation
					JOINT LeftToeBase
					{
						OFFSET 0.157640 -0.433110 2.322550
						CHANNELS 3 Zrotation Yrotation Xrotation
						End Site
						{
							OFFSET 0.000000 0.000000 0.000000
						}
					}
				}
			}
		}
	}
	JOINT RHipJoint
	{
		OFFSET 0.000000 0.000000 0.000000
		CHANNELS 3 Zrotation Yrotation Xrotation
		JOINT RightUpLeg
		{
			OFFSET -1.305520 -1.794630 0.839290
			CHANNELS 3 Zrotation Yrotation Xrotation
			JOINT RightLeg
			{
				OFFSET -2.542530 -6.985550 0.000000
				CHANNELS 3 Zrotation Yrotation Xrotation
				JOINT RightFoot
				{
					OFFSET -2.568260 -7.056230 0.000000
					CHANNELS 3 Zrotation Yrotation Xrotation
					JOINT RightToeBase
					{
						OFFSET -0.164730 -0.452590 2.363150
						CHANNELS 3 Zrotation Yrotation Xrotation
						End Site
						{
							OFFSET 0.000000 0.000000 0.000000
						}
					}
				}
			}
		}
	}
}
MOTION
Frames: 11
Frame Time: 0.008333
5.488119 16.423957 0.981011 5.110999 62.933154 25.519516 -10.693104 0.867485 1.487233 -2.208615 -4.031250 -37.824750 0.654230 3.208821 66.419398 2.861346 16.555812 -14.433026 -1.829200 0.000000 -11.689699 8.046943 -1.507721 3.398153 20.728127 13.973160 -20.546023 2.920552 -1.007958 32.582754 -1.958759 0.398184 -28.197757 -178.802500 0.000000 -20.371099
5.691779 16.525101 1.092205 5.160329 62.061960 25.672550 -10.492791 0.764125 1.749878 -2.169310 -4.674102 -38.294303 0.476354 3.000800 63.853194 2.839184 16.130844 -14.478784 -1.789300 -0.000000 -11.677700 8.168597 -1.612236 3.337677 20.350337 13.378625 -18.911062 2.930637 -0.848469 30.509405 -1.691175 0.806843 -26.203792 -179.060000 -0.000000 -19.493099
5.895456 16.633399 1.206636 5.240248 61.206827 25.782250 -10.285181 0.679382 1.991952 -2.164496 -5.194617 -38.562232 0.288851 2.772182 60.919932 2.825845 15.763037 -14.390375 -1.716700 0.000000 -11.838999 8.316260 -1.735504 3.237837 19.944970 12.593629 -17.249356 2.923225 -0.709473 28.408872 -1.394711 1.229642 -23.851096 -179.316100 -0.000000 -18.370800
6.099073 16.747256 1.324105 5.355968 60.370163 25.845630 -10.072862 0.615786 2.211149 -2.209572 -5.589634 -38.610019 0.094223 2.523162 57.615477 2.820521 15.455222 -14.160248 -1.610800 -0.000001 -12.203299 8.490885 -1.876950 3.096177 19.503235 11.612883 -15.573613 2.897774 -0.597841 26.315620 -1.074668 1.681331 -21.142279 -179.559001 0.000000 -16.958700
6.302821 16.864765 1.444172 5.498705 59.555905 25.856926 -9.860267 0.574405 2.407234 -2.310185 -5.853833 -38.436231 -0.105026 2.254550 53.945942 2.820307 15.199903 -13.779047 -1.468200 -0.000001 -12.797500 8.688925 -2.035350 2.916739 19.023334 10.455750 -13.906122 2.853218 -0.519365 24.268985 -0.743065 2.158079 -18.092259 -179.768700 -0.000001 -15.175900
6.506851 16.983783 1.566375 5.660777 58.767485 25.814757 -9.652261 0.555606 2.580923 -2.469560 -5.983076 -38.048337 -0.307113 1.967392 49.927356 2.820657 14.983497 -13.237500 -1.285100 -0.000000 -13.633799 8.905309 -2.208624 2.705654 18.505480 9.151877 -12.273420 2.787906 -0.478788 22.313607 -0.415681 2.645443 -14.723473 -179.921999 -0.000000 -12.831900
6.711653 17.102039 1.690114 5.822531 58.009878 25.715102 -9.455487 0.558109 2.734317 -2.681634 -5.969830 -37.470843 -0.510737 1.663208 45.591167 2.815074 14.784468 -12.526781 -1.057000 -0.000000 -14.739700 9.130603 -2.394254 2.473473 17.961822 7.749107 -10.703997 2.700706 -0.477841 20.492066 -0.112380 3.111421 -11.072680 -179.997200 0.000001 -9.742201
6.917603 17.217275 1.814625 5.967097 57.287693 25.556173 -9.276733 0.579745 2.869063 -2.940052 -5.806463 -36.734853 -0.716056 1.343900 40.984325 2.795719 14.575970 -11.646960 -0.783300 -0.000000 -16.101700 9.354991 -2.589288 2.229866 17.408247 6.294302 -9.222808 2.590125 -0.516133 18.842172 0.148021 3.515791 -7.168937 -179.982000 -0.000000 -5.531800
7.125103 17.327285 1.939162 6.077393 56.605596 25.337218 -9.122778 0.616875 2.985724 -3.238015 -5.483779 -35.881647 -0.924223 1.012213 36.174997 2.753762 14.325596 -10.608101 -0.468300 0.000000 -17.699800 9.568368 -2.790800 1.984804 16.865389 4.836695 -7.847079 2.453643 -0.590903 17.387203 0.348546 3.804568 -3.016768 0.122000 -0.000000 -0.441700
7.334473 17.430090 2.062883 6.139053 55.969386 25.056922 -8.999963 0.664255 3.083119 -3.570359 -4.990002 -34.961467 -1.137179 0.672415 31.257843 2.679733 13.992359 -9.436418 -0.125000 -0.000001 -19.489700 9.760678 -2.994409 1.746061 16.357925 3.414674 -6.586926 2.291147 -0.695210 16.138110 0.474960 3.924062 1.353785 0.293400 0.000000 -8.519700
7.545847 17.523932 2.185084 6.150189 55.386961 24.717921 -8.912404 0.715934 3.157903 -3.942225 -4.314011 -34.028806 -1.357509 0.330776 26.354392 2.564571 13.526869 -8.175394 0.224299 0.000000 -21.427500 9.925023 -3.192952 1.514793 15.903568 2.032949 -5.451239 2.108104 -0.817635 15.112222 0.520317 3.848318 5.820281 0.490200 0.000000 -18.185800
